<?xml version="1.0" standalone="no"?>
<!DOCTYPE svg PUBLIC "-//W3C//DTD SVG 20010904//EN"
 "http://www.w3.org/TR/2001/REC-SVG-20010904/DTD/svg10.dtd">
<svg version="1.0" xmlns="http://www.w3.org/2000/svg"
 width="676.000000pt" height="369.000000pt" viewBox="0 0 676.000000 369.000000"
 preserveAspectRatio="xMidYMid meet">

<g transform="translate(0.000000,369.000000) scale(0.100000,-0.100000)"
fill="#000000" stroke="none">
<path d="M5870 3470 c-9 -6 -10 -10 -3 -10 6 0 15 5 18 10 8 12 4 12 -15 0z"/>
<path d="M6409 1573 c-13 -16 -12 -17 3 -5 9 8 23 10 29 6 8 -4 9 -3 5 4 -10
17 -21 15 -37 -5z"/>
<path d="M5870 790 c-9 -6 -10 -10 -3 -10 6 0 15 5 18 10 8 12 4 12 -15 0z"/>
<path d="M3240 300 c0 -67 4 -110 10 -110 6 0 10 24 10 53 0 42 5 58 21 73 33
29 53 8 59 -61 7 -82 30 -87 30 -6 0 71 -24 107 -63 95 -39 -11 -42 -10 -45
29 -2 20 -7 37 -13 37 -5 0 -9 -48 -9 -110z"/>
<path d="M3570 300 c0 -67 4 -110 10 -110 6 0 10 43 10 110 0 67 -4 110 -10
110 -6 0 -10 -43 -10 -110z"/>
<path d="M3807 403 c-4 -3 -7 -21 -7 -39 l0 -34 -42 6 c-52 7 -75 -8 -84 -52
-4 -24 0 -37 19 -59 21 -25 32 -29 81 -30 l56 -1 0 108 c0 99 -5 120 -23 101z
m-17 -93 c24 -24 25 -38 4 -68 -17 -24 -62 -30 -82 -10 -19 19 -14 55 10 78
27 25 43 25 68 0z"/>
<path d="M4508 376 c-2 -20 0 -36 4 -36 13 0 21 51 10 62 -6 6 -11 -2 -14 -26z"/>
<path d="M2580 385 c0 -8 5 -15 10 -15 6 0 10 7 10 15 0 8 -4 15 -10 15 -5 0
-10 -7 -10 -15z"/>
<path d="M3450 391 c0 -6 5 -13 10 -16 6 -3 10 1 10 9 0 9 -4 16 -10 16 -5 0
-10 -4 -10 -9z"/>
<path d="M2424 356 c-7 -14 -8 -30 -3 -38 5 -7 9 -30 9 -51 0 -48 15 -77 40
-77 28 0 34 17 10 30 -27 14 -28 86 -2 106 16 12 15 13 -5 14 -16 0 -23 6 -23
20 0 27 -13 25 -26 -4z"/>
<path d="M1483 340 c-47 -19 -58 -92 -20 -128 29 -28 67 -28 101 -1 67 53 -1
162 -81 129z m75 -38 c39 -50 -37 -111 -82 -66 -22 21 -20 50 5 75 22 22 55
19 77 -9z"/>
<path d="M2729 338 c-47 -16 -63 -79 -29 -116 29 -31 67 -38 99 -19 25 15 31
36 8 28 -34 -12 -69 -12 -82 -1 -18 15 -20 61 -3 78 15 15 64 16 73 2 9 -15
25 -12 25 5 0 8 -1 15 -3 15 -1 0 -16 4 -32 8 -17 5 -42 5 -56 0z"/>
<path d="M3058 335 c-35 -20 -47 -74 -24 -110 22 -34 60 -42 103 -21 39 19 37
41 -3 26 -45 -17 -74 -12 -84 15 -11 29 4 70 28 80 8 3 28 -2 45 -10 37 -18
37 -18 37 -1 0 8 -14 19 -31 25 -39 13 -38 14 -71 -4z"/>
<path d="M4113 340 c-27 -11 -43 -40 -43 -79 0 -51 50 -82 103 -62 38 15 35
32 -4 21 -39 -12 -82 4 -77 28 2 13 15 18 61 20 62 3 71 14 40 50 -22 25 -51
33 -80 22z m57 -25 c16 -19 14 -21 -27 -29 -38 -9 -55 10 -28 31 24 17 40 17
55 -2z"/>
<path d="M4616 337 c-27 -20 -15 -50 27 -70 58 -27 45 -65 -16 -44 -38 13 -45
3 -12 -19 37 -24 79 -10 83 29 3 24 -2 30 -42 47 -33 14 -44 23 -40 35 7 17
49 21 59 5 4 -6 11 -7 17 -4 6 4 1 12 -13 20 -31 17 -41 17 -63 1z"/>
<path d="M1670 265 c0 -43 4 -75 10 -75 6 0 10 22 10 49 0 65 7 81 36 81 30 0
44 -27 44 -84 0 -25 5 -46 10 -46 6 0 10 24 10 54 0 55 16 86 45 86 22 0 30
-21 30 -77 0 -29 5 -53 10 -53 11 0 13 95 3 123 -6 15 -21 17 -108 17 l-100 0
0 -75z"/>
<path d="M1980 320 c-25 -25 -26 -71 -2 -99 12 -16 32 -24 73 -28 l56 -5 6 67
c4 37 4 72 1 76 -3 5 -30 9 -60 9 -41 0 -59 -5 -74 -20z m100 -21 c25 -46 -12
-88 -67 -77 -22 4 -31 62 -12 84 18 22 66 18 79 -7z"/>
<path d="M2200 265 c0 -43 4 -75 10 -75 6 0 10 24 10 53 0 40 5 58 18 70 43
39 72 13 72 -65 0 -32 4 -58 10 -58 14 0 13 123 -2 138 -7 7 -36 12 -65 12
l-53 0 0 -75z"/>
<path d="M2574 326 c-10 -25 1 -129 14 -134 9 -3 12 16 12 72 0 46 -4 76 -10
76 -6 0 -13 -6 -16 -14z"/>
<path d="M3452 268 c2 -40 8 -73 13 -73 6 0 11 33 13 73 2 60 0 72 -13 72 -13
0 -15 -12 -13 -72z"/>
<path d="M3912 268 c4 -87 21 -93 28 -11 5 54 7 58 33 61 44 5 31 22 -18 22
l-46 0 3 -72z"/>
<path d="M4290 265 c0 -43 4 -75 10 -75 6 0 10 24 10 54 0 57 16 86 49 86 30
0 41 -22 41 -82 0 -32 4 -58 10 -58 11 0 14 108 4 134 -5 12 -21 16 -65 16
l-59 0 0 -75z"/>
<path d="M4900 323 c0 -24 33 -110 48 -125 9 -9 15 -3 27 25 19 46 31 47 52 2
9 -19 20 -35 24 -35 6 0 43 94 51 129 2 7 -2 15 -8 18 -7 2 -18 -15 -25 -39
-17 -51 -39 -56 -51 -10 -5 17 -11 32 -14 32 -3 0 -12 -16 -20 -35 -8 -19 -19
-35 -24 -35 -6 0 -19 20 -30 45 -20 48 -30 56 -30 28z"/>
<path d="M5186 318 c-19 -27 -21 -78 -3 -101 20 -28 78 -33 107 -8 l25 21 -47
-7 c-32 -4 -53 -1 -63 7 -24 20 -7 30 51 30 51 0 54 2 54 24 0 36 -26 56 -70
56 -29 0 -43 -6 -54 -22z m79 -1 c25 -19 10 -37 -31 -37 -38 0 -47 22 -16 39
22 14 25 13 47 -2z"/>
<path d="M5406 324 c-59 -58 -8 -140 82 -132 l37 3 3 73 3 72 -55 0 c-36 0
-60 -5 -70 -16z m82 -10 c32 -22 30 -69 -4 -91 -24 -15 -29 -15 -53 -2 -34 19
-39 61 -12 88 25 25 39 26 69 5z"/>
<path d="M5622 268 c4 -87 21 -93 28 -11 5 54 7 58 33 61 44 5 31 22 -18 22
l-46 0 3 -72z"/>
</g>
</svg>
